<?xml version="1.0" standalone="no"?><!DOCTYPE svg PUBLIC "-//W3C//DTD SVG 1.1//EN" "http://www.w3.org/Graphics/SVG/1.1/DTD/svg11.dtd"><svg t="1526891091227" class="icon" style="" viewBox="0 0 1024 1024" version="1.1" xmlns="http://www.w3.org/2000/svg" p-id="4816" xmlns:xlink="http://www.w3.org/1999/xlink" width="200" height="200"><defs><style type="text/css"></style></defs><path d="M744.631057 305.810799a38.32683 38.32683 0 0 0-54.271961 0L525.495214 470.967252 360.631331 305.810799a38.473115 38.473115 0 0 0-54.345104 54.418247l164.863883 165.08331L306.286227 690.46881a38.399973 38.399973 0 1 0 54.345104 54.345104l164.863883-165.083311 164.863882 165.083311a38.32683 38.32683 0 0 0 54.271961 0 38.473115 38.473115 0 0 0 0-54.345104L579.767175 525.312356l164.863882-165.08331a38.546258 38.546258 0 0 0 0-54.418247z m130.706192-154.989604A508.927636 508.927636 0 0 0 513.646079 0.000731H512.62208a511.999634 511.999634 0 0 0-1.243428 1023.999269H512.62208a511.999634 511.999634 0 0 0 362.715169-873.178805z m-53.759961 671.889806A435.345975 435.345975 0 0 1 512.62208 950.345195h-1.097142A438.34483 438.34483 0 0 1 512.62208 73.655536h1.170285a438.34483 438.34483 0 0 1 307.784923 749.055465z" fill="#FB4D4D" p-id="4817"></path></svg>