<?xml version="1.0" standalone="no"?><!DOCTYPE svg PUBLIC "-//W3C//DTD SVG 1.1//EN" "http://www.w3.org/Graphics/SVG/1.1/DTD/svg11.dtd"><svg t="1526889731502" class="icon" style="" viewBox="0 0 1025 1024" version="1.1" xmlns="http://www.w3.org/2000/svg" p-id="4708" xmlns:xlink="http://www.w3.org/1999/xlink" width="200.1953125" height="200"><defs><style type="text/css"></style></defs><path d="M512.658651 1024h-1.31657A511.999634 511.999634 0 0 1 512.658651 0.000731h1.316571A511.999634 511.999634 0 0 1 512.658651 1024zM512.658651 73.655536A438.637401 438.637401 0 0 0 511.561509 950.857195H512.658651a438.417973 438.417973 0 0 0 1.024-876.762802H512.658651z m0 0l268.799808 294.984932-301.933498 335.579189a36.571402 36.571402 0 0 1-27.355409 12.141706 5.046854 5.046854 0 0 1-0.950857 0c-0.731428 0-1.31657 0.804571-1.974855 0.80457a36.571402 36.571402 0 0 1-26.84341-11.556563L244.517129 516.754648a36.790831 36.790831 0 0 1 53.613676-50.468535l151.77132 160.91417 276.772374-307.71178a36.790831 36.790831 0 0 1 54.78396 49.225108z" fill="#07D79C" p-id="4709"></path></svg>